<svg xmlns="http://www.w3.org/2000/svg" viewBox="0 0 409 204"><path fill="#fff" d="M2.32559 3.31672h203.2778v78.6903H2.32559z"/><path fill="#005eb8" d="M203.14669 10.48712l-4.4401 13.6287a34.81419 34.81419 0 00-15.1747-3.1305c-7.2884 0-13.2063 1.0681-13.2063 6.569 0 9.6995 26.7096 6.0802 26.7096 26.8701 0 18.9212-17.6465 23.83-33.6106 23.83a77.14153 77.14153 0 01-21.2843-3.5437l4.3369-13.9239c3.6378 2.3576 10.941 3.9293 16.9474 3.9293 5.7241 0 14.682-1.0829 14.682-8.1408 0-10.987-26.7096-6.866-26.7096-26.1746 0-17.6594 15.5768-22.9537 30.6573-22.9537 8.482 0 16.4585.8891 21.0924 3.0401m-52.9284-1.8669l-14.2929 68.4481h-18.4231l6.1097-29.3162h-21.7897l-6.1116 29.3162h-18.4231l14.2947-68.4481h18.4231l-5.4124 26.1857h21.7787l5.4235-26.1857zm-65.4338 0l-14.5788 68.4481h-22.8781l-14.3832-47.363h-.1937l-9.5685 47.363H5.83269l14.6949-68.4481h22.9556l14.0992 47.4645h.1937L67.435 8.62022zm126.2724-8.2053H-.12391v85.0394h211.1808z"/><path fill="#000" d="M43.61426 152.9126V118.354h-.12012l-11.2793 34.5586h-8.04L12.89551 118.354l-.12012.12012v34.43848H4.73584v-41.87842h13.43945l9.95948 31.73882h.12011l9.95948-31.73877h13.43945v41.87837zM85.43408 151.17285a21.14885 21.14885 0 01-10.55957 2.46c-10.25976 0-16.19971-5.87988-16.19971-16.01953 0-8.63965 4.5-16.31933 14.33985-16.31933 10.49951 0 14.69922 6.47949 14.69922 18.65917H66.35449c.36035 4.85987 3.66016 7.79981 8.87989 7.79981a20.81064 20.81064 0 0010.1997-3.12012zm-5.3999-16.73926c-.2998-4.43994-2.3999-7.25976-6.59961-7.25976-4.02 0-6.65967 2.63965-7.08008 7.25976zM94.19482 152.9126v-30.89893h7.13965v7.02h.12012c.48-3.23974 3.83984-7.73974 8.51953-7.73974a7.72872 7.72872 0 012.3999.23974v8.1001a8.1823 8.1823 0 00-3.59961-.66016c-3 0-6.54 1.62012-6.54 11.21973v12.71926zM116.1543 145.71289a17.65882 17.65882 0 007.91943 2.04c2.16016 0 5.27979-.83984 5.27979-3.77979 0-2.58007-2.51954-3.35986-5.75977-4.26025-5.39941-1.43945-8.21973-3.65967-8.21973-8.81934 0-6.23974 5.22022-9.5996 12.17969-9.5996a35.54632 35.54632 0 018.69971 1.13964l-.54 6.06006a19.65066 19.65066 0 00-7.13965-1.31982c-2.81982 0-4.7998 1.13965-4.7998 3.41992 0 1.73975 1.68017 2.57959 5.33984 3.59961 5.75977 1.62012 8.63965 4.19971 8.63965 9.35937 0 6.77979-5.81983 10.08008-13.01953 10.08008a36.32769 36.32769 0 01-9.05957-1.32031zM168.77246 151.17285a21.14885 21.14885 0 01-10.55957 2.46c-10.25977 0-16.19922-5.87988-16.19922-16.01953 0-8.63965 4.49951-16.31933 14.33936-16.31933 10.49951 0 14.69922 6.47949 14.69922 18.65917h-21.35889c.35986 4.85987 3.65967 7.79981 8.87939 7.79981a20.81064 20.81064 0 0010.19971-3.12012zm-5.3999-16.73926c-.29981-4.43994-2.3999-7.25976-6.59961-7.25976-4.02 0-6.65967 2.63965-7.07959 7.25976zM176.333 159.45215a12.01507 12.01507 0 004.08008.54c3.41992 0 5.27978-2.33985 5.27978-5.51953l-11.81933-32.459h8.87939l7.43994 22.55908h.11963l7.43994-22.55908h8.15967l-12.95947 34.31885c-2.33985 6.11963-4.98 9.89941-11.57959 9.89941a20.30229 20.30229 0 01-5.57959-.83984zM258.5918 152.3125a42.9713 42.9713 0 01-9.53955 1.32031c-14.33936 0-22.979-7.43994-22.979-20.93945 0-14.15918 8.57959-22.37891 22.979-22.37891a27.81636 27.81636 0 019.48 1.73975l-.60059 7.07959a17.32316 17.32316 0 00-9.05908-2.21973c-8.46 0-14.03955 6.41992-14.03955 15.1792 0 8.81983 5.51953 14.93945 14.21924 14.93945 2.93994 0 6.96-.60009 9.18017-1.73974zM282.89258 152.9126a35.99635 35.99635 0 01-.36035-4.61963h-.12012a11.00354 11.00354 0 01-9.53906 5.33984c-5.58008 0-10.79981-3.36035-10.79981-9.23974 0-5.33985 3.05957-10.55957 15.11914-10.55957h4.9795v-.12012c0-5.15967-2.63965-6.53955-6.959-6.53955a16.16891 16.16891 0 00-9.54 3.35986l-.24023-6.8999a27.66707 27.66707 0 0110.73926-2.33984c9.24023 0 13.32031 3.71972 13.32031 13.01953v6.35937c0 1.62012.11914 8.1001.47949 12.23975zm-.7207-14.2793h-3.53907c-5.70019 0-8.87988 1.67969-8.87988 5.33984 0 2.39991 1.86035 3.77979 5.09961 3.77979 3.59961 0 7.31934-2.46 7.31934-8.75977zM297.59277 152.9126v-30.89893h7.13965v7.02h.12012c.47949-3.23974 3.83984-7.73974 8.51953-7.73974a7.71766 7.71766 0 012.39941.23974v8.1001a8.17784 8.17784 0 00-3.5996-.66016c-3 0-6.53907 1.62012-6.53907 11.21973v12.71926zM344.45117 151.17285a21.14371 21.14371 0 01-10.55859 2.46c-10.25977 0-16.2002-5.87988-16.2002-16.01953 0-8.63965 4.5-16.31933 14.33985-16.31933 10.499 0 14.69922 6.47949 14.69922 18.65917h-21.35938c.36035 4.85987 3.66016 7.79981 8.87988 7.79981a20.8088 20.8088 0 0010.19922-3.12012zm-5.39941-16.73926c-.29981-4.43994-2.39942-7.25976-6.59961-7.25976-4.02051 0-6.65918 2.63965-7.08008 7.25976z"/><path fill="#005eb8" d="M18.95264 202.9126L8.27441 182.03613h-.08007v20.87647H2.83545v-27.91553h6.87891L20.35254 195.874h.08008v-20.87693h5.35888v27.91553zM48.792 202.9126v-12.2378H37.59375v12.2378h-5.59912v-27.91553h5.59912v11.27832H48.792v-11.27832h5.59912v27.91553zM60.91406 197.27344a13.5121 13.5121 0 006.31934 1.71972c2.03955 0 4.959-1.03955 4.959-3.59912 0-2.11963-1.87988-3.03955-4.63916-4.11963-3.71972-1.43945-7.59863-2.99951-7.59863-8.23828 0-5.999 4.519-8.51855 9.79834-8.51855a20.99707 20.99707 0 016.63867.99951l-.52 4.59912a14.49 14.49 0 00-5.67871-1.19971c-2.08008 0-4.39941.96-4.39941 3.8794 0 2.11963 2.39941 2.91943 4.71924 3.83935 3.75927 1.39991 7.51855 3.11963 7.51855 8.31885 0 5.39893-3.83936 8.43848-10.51807 8.43848a24.72751 24.72751 0 01-7.11865-1.08008zM94.23438 202.9126v-27.91553H109.752v4.39941h-9.9185v6.87891h9.4385v4.39941h-9.4385v12.2378zM123.19287 203.39258c-6.63867 0-10.75781-4.55908-10.75781-10.63819 0-6.59912 4.479-10.91845 10.75781-10.91845 6.2793 0 10.79834 4.27929 10.79834 10.91845 0 6.11866-4.15921 10.63819-10.79834 10.63819zm5.19922-11.27832c0-3.2793-1.75977-6.11865-5.19922-6.11865-3.35937 0-5.15869 2.87939-5.15869 6.11865 0 4.35937 1.67969 7.11914 5.15869 7.11914 3.47949 0 5.19922-2.67969 5.19922-7.11914zM152.03174 202.9126v-2.79932h-.08008a8.58075 8.58075 0 01-6.75879 3.2793c-4.59912 0-6.99853-3.07959-6.99853-8.07862v-12.998h5.35888v11.7583c0 4.11914 1.51953 5.15918 3.47949 5.15918 3.23926 0 4.71924-2.99951 4.71924-6.959v-9.95849h5.35889v20.59665zM176.19141 202.9126v-11.55811c0-3.07959-.64014-5.35888-3.4795-5.35888-3.39941 0-4.71923 3.27929-4.71923 6.91845v9.99854h-5.35889v-20.59668h5.0791v2.7998h.07959a7.69575 7.69575 0 016.75928-3.27978c4.71924 0 6.99853 3.23974 6.99853 8.07861v12.99805zM200.79053 202.9126v-2.31983h-.07959a7.64764 7.64764 0 01-6.31934 2.79981c-6.27881 0-8.63818-5.11914-8.63818-10.83838 0-6.23877 2.71924-10.71826 8.63818-10.71826a7.31813 7.31813 0 016.15918 2.87988h.08008v-11.79834h5.35889v29.99512zm-.19971-10.3584c0-2.8794-1.35986-6.55859-4.79932-6.55859-3.23925 0-4.439 3.35937-4.439 6.55859 0 2.91943 1.03955 6.6792 4.519 6.6792 3.51961 0 4.71932-3.67969 4.71932-6.6792zM224.07031 202.9126a24.05476 24.05476 0 01-.23974-3.07959h-.08008a7.33516 7.33516 0 01-6.35889 3.55957c-3.71972 0-7.19873-2.23975-7.19873-6.15918 0-3.55908 2.03955-7.03858 10.07813-7.03858h3.31933v-.08007c0-3.43946-1.75976-4.35938-4.63916-4.35938a10.77639 10.77639 0 00-6.35888 2.23975l-.16016-4.59912a18.43976 18.43976 0 017.15918-1.56006c6.15869 0 8.87842 2.48 8.87842 8.67871v4.23926c0 1.08007.08007 5.39892.31982 8.15869zm-.48-9.51856H221.231c-3.79932 0-5.919 1.12012-5.919 3.55957 0 1.59961 1.23975 2.51953 3.39942 2.51953 2.39941 0 4.8789-1.63964 4.8789-5.83886zM245.99072 202.9126a14.00483 14.00483 0 01-3.91943.48c-4.35938 0-6.55908-2.71973-6.55908-6.67871v-10.47854h-3.959v-3.91943h3.959v-4.11914l5.35937-1.71973v5.83887h4.75928v3.91943h-4.75928v9.5586c0 2.15966.67969 3.43945 2.55957 3.43945a4.73127 4.73127 0 002.39942-.56006zM249.43213 178.55664v-5.11914h5.35937v5.11914zm0 24.356v-20.59672h5.35937v20.59668zM269.87109 203.39258c-6.63867 0-10.75781-4.55908-10.75781-10.63819 0-6.59912 4.47852-10.91845 10.75781-10.91845s10.79786 4.27929 10.79786 10.91845c.00005 6.11866-4.15918 10.63819-10.79786 10.63819zm5.19922-11.27832c0-3.2793-1.75976-6.11865-5.19922-6.11865-3.35937 0-5.15918 2.87939-5.15918 6.11865 0 4.35937 1.67969 7.11914 5.15918 7.11914 3.47852 0 5.19922-2.67969 5.19922-7.11914zM298.42969 202.9126v-11.55811c0-3.07959-.64063-5.35888-3.47949-5.35888-3.39942 0-4.71973 3.27929-4.71973 6.91845v9.99854h-5.3584v-20.59668h5.0791v2.7998h.08008a7.69436 7.69436 0 016.75879-3.27978c4.71973 0 6.999 3.23974 6.999 8.07861v12.99805zM325.99023 202.9126v-23.51612h-7.998v-4.39941h21.5957v4.39941h-7.99805v23.51612zM339.11133 202.9126v-20.59668h4.75976v4.6792h.08008c.32031-2.15967 2.55957-5.15918 5.67969-5.15918a5.15072 5.15072 0 011.59961.16015v5.39891a5.46729 5.46729 0 00-2.40039-.43994c-2 0-4.35938 1.08008-4.35938 7.479v8.47852zM368.38867 202.9126v-2.79932h-.08008a8.57884 8.57884 0 01-6.75781 3.2793c-4.59961 0-6.999-3.07959-6.999-8.07862v-12.998h5.3584v11.7583c0 4.11914 1.51953 5.15918 3.48046 5.15918 3.23829 0 4.71876-2.99951 4.71876-6.959v-9.95849h5.35937v20.59665zM378.19141 198.11328a11.77 11.77 0 005.27929 1.35986c1.43946 0 3.51953-.56 3.51953-2.51953 0-1.71972-1.67968-2.23974-3.83984-2.83935-3.59961-.96-5.47851-2.43994-5.47851-5.8794 0-4.15918 3.47851-6.39892 8.11816-6.39892a23.687 23.687 0 015.79883.76025l-.36035 4.03906a13.10379 13.10379 0 00-4.75879-.87988c-1.87989 0-3.19922.75977-3.19922 2.27979 0 1.15966 1.12011 1.71972 3.55957 2.39941 3.83887 1.08008 5.75879 2.79981 5.75879 6.23926 0 4.519-3.87989 6.71875-8.67871 6.71875a24.22726 24.22726 0 01-6.03907-.87988zM408.98828 202.9126a14.00371 14.00371 0 01-3.91992.48c-4.35938 0-6.55859-2.71973-6.55859-6.67871v-10.47854h-3.959v-3.91943h3.959v-4.11914l5.35937-1.71973v5.83887h4.75977v3.91943h-4.75977v9.5586c0 2.15966.67969 3.43945 2.55957 3.43945a4.73123 4.73123 0 002.39941-.56006z"/></svg>